<svg width="2428" height="314" viewBox="0 0 2428 314" fill="none" xmlns="http://www.w3.org/2000/svg">
<path fill-rule="evenodd" clip-rule="evenodd" d="M2388.56 232.225C2329.15 221.084 2141.07 180.242 2141.07 180.242C2137.98 179.632 2139.21 176.545 2141.7 175.91C2144.15 175.3 2261.17 134.614 2267.3 131.994C2269.98 131.015 2272.21 129.091 2273.58 126.585C2274.94 124.078 2275.35 121.16 2274.72 118.376C2262.97 78.7794 2248.57 56.8864 2246.25 52.801C2225.84 16.9136 2176.89 14.8644 2167.07 13.2043C2130.57 7.01767 2021.08 9.49486 2014.27 9.49486C2002.5 9.49486 1995.7 15.6814 1991.98 19.3908C1988.28 23.1001 1940.63 73.2153 1940.63 73.2153C1940.63 73.2153 1928.88 27.4321 1927.64 21.868C1925.18 10.727 1910.94 10.727 1910.94 10.727C1910.94 10.727 1695.02 16.771 1690.69 16.9136C1672.75 17.5362 1667.19 24.9548 1667.19 24.9548C1667.19 24.9548 1638.72 57.7424 1636.26 59.597C1633.78 61.4517 1631.92 59.597 1631.92 59.597C1631.92 59.597 1623.03 33.6706 1622.02 29.8964C1619.54 20.61 1607.17 24.9419 1607.17 24.9419C1607.17 24.9419 1430.22 88.6624 1425.89 89.9075C1421.56 91.1396 1422.16 87.4432 1422.16 87.4432C1422.16 87.4432 1456.08 55.1226 1459.3 52.801C1466.08 47.8465 1460.52 39.8053 1460.52 39.8053C1460.52 39.8053 1422.88 8.32765 1420.31 5.7726C1414.12 -0.426944 1408.03 2.91925 1403.62 5.7726C1346.06 42.8921 1218.62 167.246 1215.53 170.968C1212.44 174.665 1208.73 175.326 1205.01 175.91C1057.16 198.815 1034.54 174.846 1032.4 173.459C1016.32 162.927 1028.13 153.771 1031.79 151.799C1118.4 104.784 1250.78 97.6244 1257.62 97.3521C1273.06 96.7425 1267.5 83.7468 1267.5 83.7468C1267.5 83.7468 1248.31 15.0849 1247.72 12.5947C1245.24 2.07623 1237.19 1.70005 1232.87 2.07617C1042.31 18.7812 969.3 81.2566 965.59 84.3564C961.881 87.4562 958.159 83.7338 958.159 83.7338C958.159 83.7338 946.265 11.557 945.785 8.24975C944.54 -0.414049 935.332 2.20585 931.545 3.91786C783.067 71.3606 661.799 144.977 661.799 144.977L614.784 136.313C614.784 136.313 719.152 93.2147 725.52 90.53C737.283 85.5755 732.939 73.8249 732.939 73.8249C732.939 73.8249 719.152 38.8974 716.247 32.9961C695.832 -8.45524 513.322 1.11646 504.658 1.44071C229.336 11.9592 15.2956 48.5728 9.70564 49.7012C-5.75432 52.801 3.51906 62.0743 3.51906 62.0743L57.3436 123.33C64.7623 131.994 74.0486 125.795 80.2352 124.563C86.4218 123.331 179.843 107.858 188.507 106.626C197.171 105.393 195.316 109.712 192.839 112.812C190.361 115.912 104.372 227.893 101.272 232.225C98.1724 236.557 99.4175 244.585 103.127 248.307C105.928 251.096 152.49 300.394 155.097 303.351C163.748 313.26 169.078 303.831 173.034 297.8C250.982 178.997 330.176 92.9943 333.262 89.9075C336.362 86.8207 340.072 85.5755 343.794 84.953C361.1 82.7509 378.424 80.6886 395.764 78.7664C401.95 78.1568 398.76 83.0205 396.996 84.953C358.631 127.027 301.071 206.882 298.011 211.162C291.824 219.826 296.765 226.012 296.765 226.012C296.765 226.012 344.403 279.837 349.98 285.414C355.557 290.991 361.731 283.559 364.208 280.472C366.685 277.385 420.51 194.47 425.464 188.893C430.419 183.316 437.228 184.211 442.169 184.561C468.148 186.415 564.046 200.034 564.046 200.034C568.378 200.643 568.378 203.73 566.524 205.585C564.656 207.465 560.324 209.917 556.615 211.797C552.905 213.652 552.283 226.012 552.283 226.012C552.283 226.012 578.093 289.849 580.116 293.468C585.693 303.351 592.489 296.555 596.198 292.832C599.908 289.136 677.246 230.967 684.056 226.635C690.865 222.303 700.138 222.277 705.093 222.912C776.245 232.212 969.909 277.904 977.315 279.837C991.543 283.559 990.92 274.26 989.688 269.318C988.443 264.377 981.647 224.78 981.647 222.303C981.647 219.826 983.942 218.736 986.588 221.693C1027.42 266.828 1062.71 275.959 1073.2 277.372C1119.61 283.559 1216.74 261.899 1225.41 260.045C1234.05 258.164 1239.02 262.496 1239.02 262.496C1239.02 262.496 1252.62 277.969 1254.47 279.824C1262.52 287.878 1267.46 279.824 1267.46 279.824C1267.46 279.824 1317.59 208.697 1320.69 204.366C1323.79 200.034 1328.19 200.617 1331.21 201.253C1500.11 237.75 1624.07 292.949 1628.8 295.31C1637.46 299.641 1641.16 294.065 1638.68 285.401C1637.83 282.366 1637.46 279.824 1636.23 274.882C1635 269.941 1640.56 269.305 1640.56 269.305C1640.56 269.305 1854.01 264.04 1858.34 263.728C1867.61 263.119 1873.79 266.815 1873.79 266.815C1873.79 266.815 1890.79 278.981 1893.59 281.056C1905.34 289.72 1909.67 279.201 1911.53 276.114C1913.38 273.027 1946.79 216.713 1948.66 213.626C1950.51 210.539 1955.35 210.332 1959.18 211.149C2179.43 258.164 2311.75 301.73 2317.39 303.325C2334.72 308.292 2342.14 298.383 2342.14 298.383C2342.14 298.383 2394.63 247.568 2397.21 244.559C2404.65 235.921 2394.16 233.262 2388.56 232.225ZM594.979 75.6796C590.725 77.7029 520.118 105.38 492.894 112.799C489.107 113.824 479.898 115.899 486.695 107.845C489.82 104.161 517.628 71.9573 517.628 71.9573C517.628 71.9573 521.35 67.6384 535.565 67.0029C546.758 66.523 580.725 64.5256 593.112 65.7707C598.092 66.2895 607.975 69.493 594.979 75.6796ZM878.952 181.487C870.911 180.877 798.527 166.014 796.049 166.014C791.108 166.014 790.174 164.017 794.195 161.073C802.677 154.86 864.245 122.864 871.119 119.232C870.859 119.517 877.785 116.988 878.343 120.853C878.952 125.185 885.152 171.578 885.774 174.068C886.384 176.545 887.006 182.084 878.952 181.487ZM1591.68 109.712C1586.1 115.912 1549.61 161.669 1547.14 164.795C1544.66 167.882 1541.56 172.214 1531.67 169.127C1521.76 166.014 1472.29 152.409 1469.18 151.799C1466.09 151.177 1460.52 148.077 1467.96 145.6C1475.38 143.135 1586.74 106.626 1586.74 106.626C1589.82 105.38 1597.26 103.526 1591.68 109.712ZM1927.03 88.6753C1922.69 94.2523 1857.72 176.545 1854.63 180.877C1851.54 185.209 1851.54 188.296 1843.51 188.906C1835.46 189.515 1665.94 190.76 1661.61 190.76C1657.28 190.76 1653.58 190.76 1657.28 185.209C1661 179.632 1662.86 178.4 1663.47 176.545C1664.1 174.665 1669.68 171.578 1672.77 171.578C1675.85 171.578 1790.3 167.246 1818.14 169.723C1821.84 170.048 1827.44 170.333 1831.78 166.001C1836.11 161.669 1870.13 117.753 1870.13 117.753C1870.13 117.753 1877.55 105.38 1861.46 106.003C1855.28 106.249 1721.03 107.858 1717.94 107.858C1714.85 107.858 1711.13 107.858 1713.61 103.539C1716.06 99.2067 1716.7 98.5842 1719.19 96.107C1721.64 93.6297 1722.88 92.9164 1730.94 91.7751C1756.9 88.0657 1922.72 83.7338 1922.72 83.7338C1925.78 83.7338 1931.36 83.1113 1927.03 88.6753ZM2009.29 131.372C2015.48 123.94 2042.09 89.2978 2043.31 87.4432C2044.56 85.5755 2051.37 80.634 2055.7 80.634C2060.03 80.634 2130.55 81.2566 2150.98 88.6753C2153.89 89.7388 2163.36 92.3976 2151.58 97.3391C2139.86 102.294 2082.3 122.708 2020.45 135.081C2016.79 135.807 2003.12 138.79 2009.29 131.372ZM2390.33 295.245C2390.34 292.821 2390.82 290.422 2391.75 288.185C2392.68 285.948 2394.05 283.916 2395.77 282.206C2397.48 280.496 2399.52 279.14 2401.76 278.218C2404 277.295 2406.4 276.823 2408.83 276.828C2411.25 276.833 2413.65 277.315 2415.89 278.247C2418.12 279.18 2420.16 280.543 2421.87 282.261C2423.58 283.978 2424.93 286.016 2425.85 288.257C2426.78 290.498 2427.25 292.899 2427.24 295.323C2427.23 300.217 2425.28 304.908 2421.81 308.361C2418.34 311.815 2413.64 313.75 2408.75 313.74C2403.85 313.729 2399.16 311.775 2395.71 308.306C2392.26 304.838 2390.32 300.14 2390.33 295.245ZM2425.01 295.245C2425.01 290.948 2423.31 286.828 2420.27 283.79C2417.23 280.752 2413.11 279.046 2408.81 279.046C2404.52 279.046 2400.4 280.752 2397.36 283.79C2394.32 286.828 2392.61 290.948 2392.61 295.245C2392.53 297.427 2392.88 299.604 2393.66 301.645C2394.43 303.687 2395.61 305.551 2397.12 307.125C2398.64 308.7 2400.45 309.953 2402.46 310.808C2404.47 311.664 2406.63 312.105 2408.81 312.105C2411 312.105 2413.16 311.664 2415.17 310.808C2417.18 309.953 2418.99 308.7 2420.5 307.125C2422.02 305.551 2423.2 303.687 2423.97 301.645C2424.75 299.604 2425.1 297.427 2425.01 295.245ZM2418.02 305.582H2415.01L2409.14 296.062H2404.51V305.582H2402V284.96H2410.97C2412.72 284.96 2414.47 285.038 2415.99 285.971C2417.56 286.827 2418.32 288.656 2418.32 290.407C2418.32 294.454 2415.48 295.958 2411.81 296.062L2418.02 305.582ZM2408.35 294.077C2411.27 294.077 2415.74 294.557 2415.74 290.355C2415.74 287.165 2412.93 286.788 2410.37 286.788H2404.49V294.077H2408.35Z" fill="#ffa500"/>
</svg>
